<svg width="512" height="512" viewBox="0 0 512 512" fill="none" xmlns="http://www.w3.org/2000/svg">
<path d="M252.537 295.419C272.097 279.193 274.001 256.826 297.982 233.495C298.632 232.924 299.325 232.32 300.037 231.711C322.576 212.821 328.384 207.156 366.546 187.979C374.198 184.84 382.393 183.038 390.358 182.419C422.589 177.986 454.857 196.714 465.385 207.841C467.862 209.83 469.658 211.757 471.031 213.569C479.908 227.382 476.665 235.465 475.82 257.403C475.015 266.209 472.791 273.595 469.536 280.222C463.647 292.153 454.89 303.303 440.58 310.255C435.41 312.804 427.467 315.974 418.096 317.725C392.386 324.217 354.166 318.388 336.427 309.352C334.995 308.766 333.668 308.199 332.441 307.686C310.159 297.924 294.973 275.913 284.315 264.738C281.018 261.22 278.61 258.222 276.908 255.816C276.152 254.765 276.152 253.988 276.529 253.563C276.529 253.563 276.53 253.562 276.53 253.562C276.998 253.031 278.114 253.101 279.339 254.083C285.298 258.853 294.601 265.622 306.505 272.239C324.507 281.888 327.229 288.199 342.837 297.335C346.6 299.301 351.176 301.239 356.924 302.692C378.462 307.696 394.09 303.622 413.184 298.52C420.781 296.308 428.202 293.481 435.621 287.729C442.099 282.62 445.504 276.002 447.975 269.442C452.056 257.24 450.729 241.733 445.704 233.62C442.003 228.559 438.446 223.713 432.988 218.973C419.403 207.883 403.956 209.072 392.895 211.595C376.7 216.45 369.481 223.632 349.497 245.748C343.877 251.95 337.748 259.179 329.468 266.89C307.225 288.973 280.654 317.289 256.485 337.349C245.244 346.391 234.754 352.387 226.527 357.098C209.231 366.904 187.159 376.122 161.079 379.445C136.254 382.509 111.009 376.545 88.6816 365.878C76.9305 360.232 65.0416 353.578 53.3647 345.21C29.2799 329.736 13.8512 297.047 10.3737 271.256C6.992 252.207 7.89678 232.617 14.1487 214.548C18.8129 200.956 27.1598 186.673 39.033 175.533C50.5509 164.828 64.2136 153.151 81.09 146.812C97.9155 140.443 114.4 140.482 127.947 141.263C142.637 142.084 155.546 145.338 164.705 149.137C190.858 160.925 198.435 170.231 213.2 182.5C217.498 186.325 222.315 190.664 228.058 195.921C242.372 208.944 259.48 229.053 272.671 247.165C279.461 256.195 275.933 256.407 266.931 249.242C253.941 238.703 245.55 227.942 237.395 223.971C221.109 216.056 214.615 212.411 202.132 195.398C201.982 195.196 201.832 194.998 201.683 194.803C189.135 178.765 176.562 180.671 167.924 175.325C160.111 171.863 161.016 164.147 127.947 163.585C120.838 163.81 112.35 164.448 103.443 167.028C84.2413 172.542 73.0731 185.712 62.297 197.763C48.5566 214.438 46.9736 230.695 46.6071 242.815C46.5428 248.472 46.5099 256.167 47.6742 264.595C50.2411 285.219 56.4998 305.351 73.9683 317.052C77.1643 319.335 80.4852 321.425 83.8154 323.274C100.694 332.952 131.476 345.836 156.748 342.323C178.509 339.699 198.015 330.921 208.256 323.994C220.327 315.79 225.874 312.077 231.628 309.179C237.034 306.276 243.001 303.307 252.537 295.419Z" fill="#D9D9D9"/>
<path d="M344.553 329.142C357.941 335.823 373.567 335.216 384.363 332.534C390.802 331.19 397.322 329.92 404.539 328.988C423.897 325.735 431.132 326.974 446.24 316.221C448.688 314.323 451.223 311.859 453.691 308.592C466.811 291.522 473.773 267.512 474.143 252.471C474.233 249.233 473.876 246.477 473.206 244.337C469.012 233.708 476.418 229.95 465.428 214.675C461.873 210.203 458.493 206.393 455.314 202.767C448.647 195.364 442.326 189.244 433.059 182.352C427.152 177.942 413.985 171.144 398.627 168.959C379.183 165.615 358.088 169.213 349.196 174.801C346.449 176.359 343.656 177.873 340.83 179.394C326.367 187.14 309.97 193.527 300.601 199.741C297.104 202.039 294.308 203.826 292.109 205.166C291.17 205.742 290.492 205.747 290.162 205.413C290.161 205.412 290.161 205.412 290.161 205.412C289.748 204.999 289.905 204.03 290.885 203.013C295.649 198.054 303.055 191.004 312.122 182.622C321.494 174.048 327.413 171.275 335.058 167.849C341.548 165.097 349.326 161.792 363.321 158.381C376.968 155.247 388.636 154.469 400.237 154.791C415.69 155.492 432.033 159.229 449.79 172.241C458.292 178.667 464.706 184.122 470.469 189.702C482.203 202.334 501.594 214.39 498.407 253.715C498.092 255.858 497.693 258.091 497.204 260.361C486.589 299.832 484.963 314.001 464.597 338.472C458.152 345.226 449.414 352.481 436.463 358.384C420.865 365.548 402.463 368.575 385.333 368.429C350.79 366.077 329.252 353.413 308.286 342.467C298.027 335.97 292.614 330.896 286.963 326.718C275.18 317.683 261.987 307.122 247.887 294.958C232.828 281.793 217.12 267.268 201.371 251.983C200.579 251.215 199.762 250.433 198.988 249.696C187.136 238.929 165.165 226.574 149.59 224.426C136.427 222.996 122.53 226.055 113.762 232.504C110.283 234.959 106.206 240.126 103.539 245.21C100.985 249.776 99.5565 255.808 99.9061 258.212C102.76 273.982 110.804 283.277 127.764 288.705C143.302 294.483 157.853 293.434 171.898 291.355C176.188 290.88 181.383 288.585 185.36 286.744C206.46 276.098 214.402 269.827 228.112 258.541C231.354 255.787 235.01 252.231 239.171 248.05C251.042 236.087 268.341 220.444 284.476 208.76C292.605 202.848 292.464 205.91 286.014 213.631C276.581 224.905 267.249 232.533 263.575 239.617C256.241 253.443 253.481 259.355 236.977 269.738C236.612 269.944 236.231 270.16 235.834 270.384C219.023 279.867 215.763 290.811 205.577 296.717C202.108 298.692 199.551 299.564 195.675 301.143C191.482 302.575 187.633 305.426 175.19 308.472C167.016 309.613 153.427 314.278 132.658 311.781C128.892 311.319 125.313 310.66 121.881 309.882C109.897 307.261 97.2919 302.129 88.4812 292.903C79.6807 283.784 75.787 273.705 73.1807 265.501C68.461 235.042 80.6761 223.254 90.286 211.406C91.5111 210.161 92.9255 208.864 94.581 207.569C107.792 196.869 130.849 191.087 153.301 194.737C174.082 198.7 188.235 207.887 202.302 215.855C207.203 218.825 212.579 222.216 218.806 227.545C233.778 240.593 251.879 257.345 268.385 271.899C283.059 284.676 297.116 295.981 306.233 302.137C315.468 308.376 320.943 312.54 323.393 314.771C328.747 318.819 332.989 323.238 344.553 329.142Z" fill="#D9D9D9"/>
</svg>
